<svg width="64" height="64" viewBox="0 0 64 64" fill="none" xmlns="http://www.w3.org/2000/svg">
  <rect width="64" height="64" rx="18" fill="#10131A"/>
  <path d="M17 40.5C24.5 42.4 33.7 39.4 38.2 31.9C40.9 27.5 41.9 22.5 41.2 17.5C46.7 21.2 50.2 27 50.2 33.4C50.2 44.2 41.5 52.6 30.8 52.6C24.8 52.6 19.8 50.3 16 46.5C15 45.5 15.5 40.1 17 40.5Z" fill="#14B8A6"/>
  <path d="M21.5 35.4C28.8 35.1 34.2 29.6 34.2 22.4C34.2 17.5 32.1 13.6 28.4 10.8C39.8 11.7 48.2 20.4 48.2 31.4C48.2 42.5 39.6 50.6 29.2 50.6C23.6 50.6 18.8 48.5 15.1 44.7C21.4 45.3 28.9 42.4 33.8 36.2C29.6 38.1 24.5 38.2 20.1 36.7C19.2 36.4 20.5 35.5 21.5 35.4Z" fill="#2DD4BF"/>
  <path d="M38.8 20.1C43.3 20.9 46.8 24.6 47.4 29.4C44.8 26.3 41.3 24.5 37.3 24.2C37.9 22.9 38.4 21.6 38.8 20.1Z" fill="#D4A574"/>
  <circle cx="42.5" cy="28.5" r="2.3" fill="#10131A"/>
  <path d="M29 48.5C33.7 45.5 37.5 41.2 39.9 36.2" stroke="#10131A" stroke-width="3.2" stroke-linecap="round"/>
</svg>
